<?xml version="1.0" encoding="UTF-8"?><svg id="Layer_2" xmlns="http://www.w3.org/2000/svg" viewBox="0 0 61.76 52.5"><defs><style>.cls-1,.cls-2,.cls-3{stroke-width:0px;}.cls-1,.cls-3{fill:#33363f;}.cls-2{fill:#000;}.cls-3{fill-rule:evenodd;}</style></defs><g id="crewdb"><circle class="cls-1" cx="48.38" cy="14" r="10.5"/><circle class="cls-1" cx="13.38" cy="14" r="10.5"/><path class="cls-3" d="M50.37,45.5h8.14c2.07,0,3.66-1.78,3.16-3.79-1.29-5.15-4.72-13.71-13.29-13.71-3.1,0-5.53,1.12-7.43,2.8,5.28,3.42,8.01,9.42,9.42,14.7Z"/><path class="cls-3" d="M20.81,30.8c-1.9-1.68-4.33-2.8-7.43-2.8C4.81,28,1.38,36.56.09,41.71c-.5,2.01,1.08,3.79,3.16,3.79h8.14c1.41-5.28,4.14-11.28,9.42-14.7Z"/><path class="cls-2" d="M30.88,31.5c12.98,0,16.33,11.55,17.2,17.52.28,1.91-1.27,3.48-3.2,3.48h-28c-1.93,0-3.48-1.57-3.2-3.48.87-5.97,4.22-17.52,17.2-17.52Z"/><circle class="cls-2" cx="30.88" cy="14" r="14"/></g></svg>