<?xml version="1.0" encoding="UTF-8"?><svg id="Layer_2" xmlns="http://www.w3.org/2000/svg" viewBox="0 0 38 38"><defs><style>.cls-1{fill:#fff;fill-rule:evenodd;stroke-width:0px;}.cls-2{fill:none;stroke:#fff;}</style></defs><g id="crewdb"><path class="cls-1" d="M16.01,18.93c-.27-.2-.41-.29-.55-.3-.12-.01-.24.02-.33.09-.11.08-.18.23-.32.54l-3.04,6.84h0c-.24.55-.37.82-.31,1,.04.15.16.28.31.33.17.06.45-.04,1.02-.25l5.93-2.22c.1-.04.16-.06.21-.07.05,0,.1,0,.14,0,.05,0,.11.03.21.07l5.93,2.22c.56.21.84.32,1.02.25.15-.05.27-.18.31-.33.05-.18-.07-.45-.31-1l-3.04-6.84c-.14-.31-.2-.46-.32-.54-.1-.07-.22-.1-.33-.09-.14.01-.27.11-.55.3l-2.41,1.72c-.35.25-.81.25-1.16,0l-2.41-1.72ZM16.06,16.45s0,.06.02.07l2.45,1.75c.17.12.25.18.34.2.08.02.17.02.25,0,.09-.02.17-.08.34-.2l2.45-1.75s.03-.05.02-.07l-2.21-4.97c-.23-.52-.35-.78-.51-.86-.14-.07-.3-.07-.44,0-.16.08-.28.34-.51.86l-2.21,4.97Z"/><circle class="cls-2" cx="19" cy="19" r="18.5"/></g></svg>