<?xml version="1.0" encoding="UTF-8"?><svg id="Layer_2" xmlns="http://www.w3.org/2000/svg" viewBox="0 0 42 52.5"><defs><style>.cls-1{fill:#222;fill-rule:evenodd;stroke-width:0px;}</style></defs><g id="crewdb"><path class="cls-1" d="M21,0v13.27c0,1.11,0,2.19.12,3.09.14,1.01.46,2.15,1.42,3.11.95.95,2.1,1.28,3.11,1.42.89.12,1.97.12,3.09.12h13.27v15.75c0,7.42,0,11.14-2.31,13.44s-6.02,2.31-13.44,2.31h-10.5c-7.42,0-11.14,0-13.44-2.31-2.31-2.31-2.31-6.02-2.31-13.44V15.75C0,8.33,0,4.61,2.31,2.31,4.61,0,8.33,0,15.75,0h5.25ZM26.25.01v13.11c0,1.31,0,2.03.07,2.53v.02s.02,0,.02,0c.5.07,1.22.07,2.53.07h13.11c-.03-1.08-.11-1.8-.39-2.46-.4-.96-1.16-1.72-2.68-3.24l-6.97-6.97c-1.52-1.52-2.28-2.28-3.24-2.68-.66-.27-1.38-.36-2.46-.39ZM10.5,28.88c0-1.45,1.18-2.62,2.62-2.62h15.75c1.45,0,2.62,1.18,2.62,2.62s-1.18,2.62-2.62,2.62h-15.75c-1.45,0-2.62-1.18-2.62-2.62ZM13.12,36.75c-1.45,0-2.62,1.18-2.62,2.62s1.18,2.62,2.62,2.62h10.5c1.45,0,2.62-1.18,2.62-2.62s-1.18-2.62-2.62-2.62h-10.5Z"/></g></svg>