<?xml version="1.0" encoding="UTF-8"?><svg id="Layer_2" xmlns="http://www.w3.org/2000/svg" viewBox="0 0 48.65 52.43"><defs><style>.cls-1{fill:#000;fill-rule:evenodd;stroke-width:0px;}</style></defs><g id="crewdb"><path class="cls-1" d="M0,16.28c0-2.86,0-4.29.46-5.57.46-1.28,1.34-2.29,3.1-4.32l2-2.3c1.76-2.02,2.64-3.03,3.75-3.56,1.12-.53,2.36-.53,4.85-.53h20.33c2.49,0,3.73,0,4.85.53,1.12.53,2,1.54,3.75,3.56l2,2.3c1.76,2.02,2.64,3.03,3.1,4.32.46,1.28.46,2.71.46,5.57v1.2H0v-1.2ZM34.46,24.47h14.19v13.98c0,6.59,0,9.89-1.78,11.93-1.78,2.05-4.65,2.05-10.38,2.05H12.16c-5.73,0-8.6,0-10.38-2.05-1.78-2.05-1.78-5.34-1.78-11.93v-13.98h14.19v12.82c0,2.67,0,4.01.3,4.73.67,1.6,2.28,2.37,3.75,1.78.65-.26,1.48-1.21,3.12-3.1h0c.76-.88,1.14-1.31,1.55-1.56.89-.54,1.95-.54,2.84,0,.4.25.79.68,1.55,1.56,1.64,1.89,2.47,2.84,3.12,3.1,1.46.59,3.07-.18,3.75-1.78.3-.72.3-2.05.3-4.73v-12.82Z"/></g></svg>