<?xml version="1.0" encoding="UTF-8"?><svg id="Layer_2" xmlns="http://www.w3.org/2000/svg" viewBox="0 0 43.82 52.5"><defs><style>.cls-1{fill:#000;fill-rule:evenodd;stroke-width:0px;}</style></defs><g id="crewdb"><path class="cls-1" d="M14.63,49.71l-9.39-6.71c-2.57-1.84-3.86-2.75-4.55-4.1-.69-1.35-.69-2.93-.69-6.09v-12.15c0-1.01,0-1.85.02-2.58l18.76,13.4v21.02c-1.12-.63-2.42-1.56-4.15-2.79ZM25.04,52.5c1.12-.63,2.42-1.56,4.15-2.79l9.39-6.71c2.57-1.84,3.86-2.75,4.55-4.1.69-1.35.69-2.93.69-6.09v-12.15c0-1.01,0-1.85-.02-2.58l-18.76,13.4v21.02ZM41.09,12.32l-19.18,13.7L2.73,12.32c.66-.53,1.48-1.11,2.51-1.85L14.63,3.76c3.51-2.51,5.27-3.76,7.28-3.76s3.76,1.25,7.28,3.76l9.39,6.71c1.03.73,1.85,1.32,2.51,1.85Z"/></g></svg>