<!--?xml version="1.0" encoding="UTF-8"?--><svg id="Layer_2" xmlns="http://www.w3.org/2000/svg" viewBox="0 0 510.86 510.86" width="510.8599853515625" height="510.8599853515625"><defs><style>.cls-1{fill:#000;}.cls-1,.cls-2{stroke-width:0px;}.cls-3{isolation:isolate;}.cls-2{fill:#fff;}</style></defs><g id="Layer_2-2"><g id="Layer_1-2"><circle class="cls-1 svg-elem-1" cx="255.43" cy="255.43" r="255.43"></circle><path class="cls-2 svg-elem-2" d="M407.33,255.43c0,83.89-68,151.9-151.89,151.9s-151.9-68.01-151.9-151.9,63.15-146.94,142.83-151.63v25.63h18.13v-25.63c79.67,4.68,142.83,70.78,142.83,151.63h0Z"></path><circle class="cls-1 svg-elem-3" cx="255.43" cy="198.28" r="88.56"></circle><circle class="cls-2 svg-elem-4" cx="255.43" cy="198.28" r="56.37"></circle><circle class="cls-1 svg-elem-5" cx="255.43" cy="198.28" r="40"></circle><circle class="cls-2 svg-elem-6" cx="239.2" cy="184.34" r="16.23"></circle><path class="cls-1 svg-elem-7" d="M264.5,103.8v25.63h-18.13v-25.63c3-.18,6.03-.27,9.07-.27s6.06.09,9.06.27Z"></path><rect class="cls-2 svg-elem-8" x="252.26" y="28.69" width="6.35" height="116.58" rx="3.17" ry="3.17"></rect><path class="cls-2 svg-elem-9" d="M132.48,60.66c2.27,0,0,15.81,9.29,25.1s25.1,7.02,25.1,9.29-15.81,0-25.1,9.29c-9.29,9.29-7.02,25.1-9.29,25.1s0-15.81-9.29-25.1-25.1-7.02-25.1-9.29,15.81,0,25.1-9.29,7.02-25.1,9.29-25.1Z"></path><path class="cls-2 svg-elem-10" d="M56.2,173.15c2.69,0,0,18.73,11.01,29.74,11.01,11.01,29.74,8.32,29.74,11.01s-18.73,0-29.74,11.01-8.32,29.74-11.01,29.74,0-18.73-11.01-29.74c-11.01-11.01-29.74-8.32-29.74-11.01s18.73,0,29.74-11.01,8.32-29.74,11.01-29.74Z"></path><path class="cls-2 svg-elem-11" d="M454.01,173.15c2.69,0,0,18.73,11.01,29.74,11.01,11.01,29.74,8.32,29.74,11.01s-18.73,0-29.74,11.01c-11.01,11.01-8.32,29.74-11.01,29.74s0-18.73-11.01-29.74c-11.01-11.01-29.74-8.32-29.74-11.01s18.73,0,29.74-11.01c11.01-11.01,8.32-29.74,11.01-29.74Z"></path><path class="cls-2 svg-elem-12" d="M375.54,60.66c2.27,0,0,15.81,9.29,25.1s25.1,7.02,25.1,9.29-15.81,0-25.1,9.29-7.02,25.1-9.29,25.1,0-15.81-9.29-25.1-25.1-7.02-25.1-9.29,15.81,0,25.1-9.29,7.02-25.1,9.29-25.1Z"></path><path class="cls-2 svg-elem-13" d="M73.95,112.51c1.59,0,0,11.1,6.52,17.62s17.62,4.93,17.62,6.52-11.1,0-17.62,6.52-4.93,17.62-6.52,17.62,0-11.1-6.52-17.62c-6.52-6.52-17.62-4.93-17.62-6.52s11.1,0,17.62-6.52,4.93-17.62,6.52-17.62Z"></path><path class="cls-2 svg-elem-14" d="M437.33,112.51c1.59,0,0,11.1,6.52,17.62s17.62,4.93,17.62,6.52-11.1,0-17.62,6.52-4.93,17.62-6.52,17.62,0-11.1-6.52-17.62c-6.52-6.52-17.62-4.93-17.62-6.52s11.1,0,17.62-6.52c6.52-6.52,4.93-17.62,6.52-17.62Z"></path><path class="cls-2 svg-elem-15" d="M98.09,151.59c.79,0,0,5.52,3.24,8.76s8.76,2.45,8.76,3.24-5.52,0-8.76,3.24-2.45,8.76-3.24,8.76,0-5.52-3.24-8.76c-3.24-3.24-8.76-2.45-8.76-3.24s5.52,0,8.76-3.24,2.45-8.76,3.24-8.76Z"></path><path class="cls-2 svg-elem-16" d="M413.27,151.59c.79,0,0,5.52,3.24,8.76,3.24,3.24,8.76,2.45,8.76,3.24s-5.52,0-8.76,3.24-2.45,8.76-3.24,8.76,0-5.52-3.24-8.76c-3.24-3.24-8.76-2.45-8.76-3.24s5.52,0,8.76-3.24,2.45-8.76,3.24-8.76Z"></path><path class="cls-2 svg-elem-17" d="M197.1,39.39c1.21,0,0,8.43,4.95,13.38s13.38,3.74,13.38,4.95-8.43,0-13.38,4.95-3.74,13.38-4.95,13.38,0-8.43-4.95-13.38-13.38-3.74-13.38-4.95,8.43,0,13.38-4.95,3.74-13.38,4.95-13.38Z"></path><path class="cls-2 svg-elem-18" d="M313.77,39.39c1.21,0,0,8.43,4.95,13.38s13.38,3.74,13.38,4.95-8.43,0-13.38,4.95-3.74,13.38-4.95,13.38,0-8.43-4.95-13.38-13.38-3.74-13.38-4.95,8.43,0,13.38-4.95,3.74-13.38,4.95-13.38Z"></path><rect class="cls-2 svg-elem-19" x="425.69" y="277.47" width="56.65" height="56.65" transform="translate(-83.25 410.6) rotate(-45)"></rect><rect class="cls-1 svg-elem-20" x="435.21" y="287" width="37.59" height="37.59" transform="translate(-83.26 410.6) rotate(-45)"></rect><rect class="cls-2 svg-elem-21" x="447.2" y="298.98" width="13.63" height="13.63" transform="translate(-83.25 410.6) rotate(-45)"></rect><rect class="cls-2 svg-elem-22" x="27.88" y="277.46" width="56.65" height="56.65" transform="translate(-199.76 129.3) rotate(-45)"></rect><rect class="cls-1 svg-elem-23" x="37.41" y="286.99" width="37.59" height="37.59" transform="translate(-199.76 129.3) rotate(-45)"></rect><rect class="cls-2 svg-elem-24" x="49.39" y="298.97" width="13.63" height="13.63" transform="translate(-199.76 129.3) rotate(-45)"></rect><rect class="cls-2 svg-elem-25" x="427.38" y="249.43" width="7.31" height="7.31" transform="translate(-52.71 378.91) rotate(-45)"></rect><rect class="cls-2 svg-elem-26" x="81.02" y="244.25" width="7.31" height="7.31" transform="translate(-150.5 132.49) rotate(-45)"></rect><rect class="cls-2 svg-elem-27" x="477.87" y="242.56" width="8.36" height="8.36" transform="translate(-33.28 413.13) rotate(-45)"></rect><rect class="cls-2 svg-elem-28" x="27.22" y="242.56" width="8.36" height="8.36" transform="translate(-165.27 94.47) rotate(-45)"></rect><rect class="cls-2 svg-elem-29" x="406.7" y="331.78" width="12.97" height="12.97" transform="translate(-118.17 391.24) rotate(-45)"></rect><rect class="cls-2 svg-elem-30" x="91.62" y="331.78" width="12.97" height="12.97" transform="translate(-210.46 168.45) rotate(-45)"></rect><path class="cls-2 svg-elem-31" d="M169.31,476.9h171.76c-26.08,9.92-55.19,15.46-85.87,15.46s-59.79-5.54-85.88-15.46h-.01Z"></path><path class="cls-2 svg-elem-32" d="M393.53,448.1c-8.06,6.1-16.73,11.67-25.93,16.65h-224.83c-9.19-4.98-17.87-10.55-25.93-16.65h276.69Z"></path><path class="cls-2 svg-elem-33" d="M423.78,419.29c-4.82,5.83-10.09,11.39-15.77,16.65H102.37c-5.68-5.26-10.95-10.82-15.77-16.65h337.18Z"></path><path class="cls-2 svg-elem-34" d="M442.84,390.48c-2.92,5.72-6.24,11.28-9.91,16.65H77.45c-3.67-5.38-6.99-10.93-9.91-16.65h375.3Z"></path><path class="cls-2 svg-elem-35" d="M454.01,361.17c-1.5,5.84-3.39,11.56-5.64,17.16H62.01c-2.25-5.6-4.13-11.31-5.64-17.16h397.64Z"></path><g class="cls-3"><g class="cls-3"><path class="cls-1 svg-elem-36" d="M203.8,340.52c26.44,0,47.95,21.51,47.95,47.95s-21.51,47.95-47.95,47.95-47.95-21.51-47.95-47.95,21.51-47.95,47.95-47.95Z"></path><path class="cls-1 svg-elem-37" d="M315.73,388.34h40.28c0,26.58-21.51,48.08-47.95,48.08h-48.08c0-23.84,17.4-43.7,40.28-47.4h-40.28c0-26.58,21.51-48.5,48.08-48.5h47.95c0,23.97-17.4,44.11-40.28,47.81Z"></path></g></g></g></g></svg>